<svg width="41" height="42" viewBox="0 0 41 42" fill="none" xmlns="http://www.w3.org/2000/svg">
<g id="8679851_external_link_line_icon 1" clip-path="url(#clip0_383_1819)">
<g id="Group">
<path id="Vector" d="M17.0833 10.75V14.1667H8.54167V32.9583H27.3333V24.4167H30.75V34.6667C30.75 35.1197 30.57 35.5543 30.2496 35.8746C29.9293 36.195 29.4947 36.375 29.0417 36.375H6.83333C6.38026 36.375 5.94573 36.195 5.62536 35.8746C5.30498 35.5543 5.125 35.1197 5.125 34.6667V12.4583C5.125 12.0053 5.30498 11.5707 5.62536 11.2504C5.94573 10.93 6.38026 10.75 6.83333 10.75H17.0833ZM35.875 5.625V19.2917H32.4583V11.4555L19.1453 24.7703L16.7297 22.3547L30.041 9.04167H22.2083V5.625H35.875Z" fill="#20201F"/>
</g>
</g>
<defs>
<clipPath id="clip0_383_1819">
<rect width="41" height="41" fill="white" transform="translate(0 0.5)"/>
</clipPath>
</defs>
</svg>
