<svg width="69" height="90" viewBox="0 0 69 90" fill="none" xmlns="http://www.w3.org/2000/svg">
<g id="Frame" clip-path="url(#clip0_166_3752)">
<path id="Vector" fill-rule="evenodd" clip-rule="evenodd" d="M41.8919 0H4.49984C2.28388 0 0.5 1.78994 0.5 3.99794V86.0021C0.5 88.2022 2.29079 90 4.49984 90H64.5002C66.7161 90 68.5 88.2101 68.5 86.0021V26.6081V26.0275C68.5 24.9257 67.8695 23.402 67.0864 22.6188L45.8812 1.41362C45.1005 0.632898 43.5726 0 42.4725 0H41.8919ZM46.6943 24.0066C45.4824 24.0066 44.5 23.0191 44.5 21.8122V3.89018C44.5 3.34332 44.8147 3.21475 45.2023 3.60225L64.9043 23.3043C65.2922 23.6922 65.1577 24.0066 64.6164 24.0066H46.6943ZM48 63.9375C45.8243 63.8984 43.625 63.5 40.875 61.5C36.251 62.0484 27.93 64.3834 27.658 64.6576C25.8455 69.3138 22.395 73.065 20.22 73C17.1267 72.9076 17.5 70.7743 17.5 70.2581C17.772 68.8871 19.404 66.4194 22.668 64.5C23.212 64.2258 24.028 63.6774 25.116 63.129C25.932 61.7581 26.748 60.1129 27.836 58.1936C29.196 55.4516 30.012 52.7097 30.828 50.2419C29.74 46.9516 29.196 45.0323 30.284 41.1936C30.556 40.0968 32.0017 37.9701 34.636 39.5484C36.54 41.4677 35.724 45.8548 34.636 49.4194V49.6936C35.724 52.7097 37.3455 56.4388 41.436 58.4677C42.796 58.4677 43.884 58.1936 44.972 58.1936C48.236 58.1936 50.412 58.7419 51.228 60.1129C51.5 60.6613 52.5065 64.0185 48 63.9375ZM28.38 62.3064C28.38 62.3064 34.5625 60.0625 38.6875 59.6875C35.9745 58.0077 33.9005 54.1552 32.8125 51.6875C32.3795 53.2153 30.4058 59.3438 28.38 62.3064ZM43.562 60.3464C43.6227 60.3334 45.8433 59.6902 47.4995 60.1277C49.1558 60.5652 49.596 61.7581 49.596 61.7581C45.3794 62.6802 43.562 60.3464 43.562 60.3464ZM19.404 70.5323C21.036 70.2581 23.3414 68.5674 24.5289 65.3174C24.5289 65.3174 19.676 69.7097 19.404 70.5323ZM32.5289 40.5964C31.9849 42.6934 31.916 44.8544 32.46 48C34.125 45.3367 33.5289 40.3972 32.5289 40.5964ZM2.5 4.19052V85.8095C2.5 87.0194 3.48633 88 4.70303 88H64.297C65.5203 88 66.5 87.0193 66.5 85.8095V26.9686C66.5 26.4157 66.0447 25.9675 65.5082 25.9675H46.4993C44.2905 25.9675 42.5 24.1807 42.5 21.9682V2.99023C42.5 2.44334 42.0492 2 41.5084 2H4.70303C3.47968 2 2.5 2.98073 2.5 4.19052Z" fill="black"/>
</g>
<defs>
<clipPath id="clip0_166_3752">
<rect width="68" height="90" fill="white" transform="translate(0.5)"/>
</clipPath>
</defs>
</svg>
