<svg width="24" height="25" viewBox="0 0 24 25" fill="none" xmlns="http://www.w3.org/2000/svg">
<g id="arrow 1" clip-path="url(#clip0_367_2107)">
<g id="Group">
<g id="Group_2">
<path id="Vector" d="M23.8535 12.1465L16.3535 4.6465C16.1582 4.45117 15.8418 4.45117 15.6465 4.6465C15.4512 4.84182 15.4512 5.15823 15.6465 5.35351L22.293 12H0.500016C0.223641 12 0 12.2237 0 12.5C0 12.7764 0.223641 13 0.500016 13H22.293L15.6465 19.6465C15.4512 19.8418 15.4512 20.1582 15.6465 20.3535C15.7441 20.4512 15.8721 20.5 16 20.5C16.128 20.5 16.2559 20.4512 16.3536 20.3535L23.8536 12.8535C24.0488 12.6582 24.0488 12.3418 23.8535 12.1465Z" fill="#FCFCFA"/>
</g>
</g>
</g>
<defs>
<clipPath id="clip0_367_2107">
<rect width="24" height="24" fill="white" transform="translate(0 0.5)"/>
</clipPath>
</defs>
</svg>
