<svg width="27" height="24" viewBox="0 0 27 24" fill="none" xmlns="http://www.w3.org/2000/svg">
<g id="noun-check-box-30439 6" clip-path="url(#clip0_166_3871)">
<g id="Group">
<path id="Vector" d="M11.6359 16.1328C11.2968 16.1328 10.9576 16.0078 10.6992 15.7578L5.78857 11.0118C5.271 10.5116 5.271 9.70124 5.78857 9.20108C6.30531 8.70148 7.14486 8.70148 7.66202 9.20108L11.6363 13.042L24.7268 0.390324C25.2436 -0.109275 26.0831 -0.109275 26.6003 0.390324C27.1178 0.890527 27.1178 1.70093 26.6003 2.20109L12.572 15.7579C12.314 16.0077 11.9744 16.1327 11.6355 16.1327L11.6359 16.1328Z" fill="#E4CB9A"/>
<path id="Vector_2" d="M22.8801 23.9717H1.35234C0.620568 23.9717 0.0273438 23.3984 0.0273438 22.6912V1.8855C0.0273438 1.1785 0.620568 0.60498 1.35234 0.60498H16.1936C16.9252 0.60498 17.5186 1.17829 17.5186 1.8855C17.5186 2.5927 16.9254 3.16601 16.1936 3.16601H2.67733V21.4107H21.5557L21.5559 12.2883C21.5559 11.5813 22.1491 11.0078 22.8809 11.0078C23.6126 11.0078 24.2059 11.5811 24.2059 12.2883V22.6912C24.2054 23.3984 23.6122 23.9717 22.8807 23.9717H22.8801Z" fill="#E4CB9A"/>
</g>
</g>
<defs>
<clipPath id="clip0_166_3871">
<rect width="27" height="24" fill="white"/>
</clipPath>
</defs>
</svg>
