<svg width="32" height="30" viewBox="0 0 32 30" fill="none" xmlns="http://www.w3.org/2000/svg">
<g id="noun-check-box-30439 1" clip-path="url(#clip0_143_1073)">
<g id="Group">
<path id="Vector" d="M13.7887 19.9939C13.3868 19.9939 12.9848 19.8428 12.6785 19.5407L6.85851 13.806C6.24508 13.2016 6.24508 12.2224 6.85851 11.618C7.47094 11.0143 8.46596 11.0143 9.07888 11.618L13.7891 16.2591L29.3038 0.971682C29.9163 0.368001 30.9113 0.368001 31.5242 0.971682C32.1376 1.57609 32.1376 2.55533 31.5242 3.15969L14.8982 19.5409C14.5923 19.8427 14.1899 19.9937 13.7882 19.9937L13.7887 19.9939Z" fill="black"/>
<path id="Vector_2" d="M27.116 29.4656H1.60161C0.73433 29.4656 0.03125 28.7729 0.03125 27.9183V2.77813C0.03125 1.92384 0.73433 1.23083 1.60161 1.23083H19.1913C20.0583 1.23083 20.7617 1.92359 20.7617 2.77813C20.7617 3.63267 20.0586 4.32542 19.1913 4.32542H3.17197V26.371H25.5463L25.5465 15.3482C25.5465 14.4939 26.2496 13.8009 27.1169 13.8009C27.9842 13.8009 28.6873 14.4937 28.6873 15.3482V27.9183C28.6868 28.7729 27.9837 29.4656 27.1167 29.4656H27.116Z" fill="black"/>
</g>
</g>
<defs>
<clipPath id="clip0_143_1073">
<rect width="32" height="29" fill="white" transform="translate(0 0.5)"/>
</clipPath>
</defs>
</svg>
