<svg width="24" height="24" viewBox="0 0 24 24" fill="none" xmlns="http://www.w3.org/2000/svg">
<g id="9104194_location_map_pin_navigation_icon 1">
<g id="_icons">
<path id="Vector" d="M9.10078 19.2C9.60078 20.3 10.7008 21 12.0008 21C13.3008 21 14.4008 20.3 14.9008 19.2L18.0008 12L18.2008 11.5C18.4008 11 18.5008 10.5 18.6008 9.9C18.9008 6.6 16.5008 3.7 13.2008 3.1C11.1008 2.8 9.10078 3.3 7.60078 4.6C6.10078 5.8 5.30078 7.5 5.30078 9.3C5.30078 10.1 5.40078 10.8 5.70078 11.5L9.10078 19.2ZM8.90078 6.1C9.70078 5.4 10.8008 5 12.0008 5C12.3008 5 12.6008 5 12.9008 5.1C15.2008 5.5 16.9008 7.6 16.7008 9.7C16.7008 10.1 16.6008 10.4 16.5008 10.7L13.0008 18.4C12.8008 19 12.2008 19 12.0008 19C11.8008 19 11.2008 19 11.0008 18.4L7.60078 10.8C7.40078 10.4 7.30078 9.9 7.30078 9.4C7.30078 8.1 7.90078 6.9 8.90078 6.1Z" fill="black"/>
<path id="Vector_2" d="M12.0012 12C13.2714 12 14.3012 10.9703 14.3012 9.70002C14.3012 8.42977 13.2714 7.40002 12.0012 7.40002C10.7309 7.40002 9.70117 8.42977 9.70117 9.70002C9.70117 10.9703 10.7309 12 12.0012 12Z" fill="black"/>
</g>
</g>
</svg>
