<svg width="120" height="120" viewBox="0 0 120 120" fill="none" xmlns="http://www.w3.org/2000/svg">
<path id="Subtract" opacity="0.15" fill-rule="evenodd" clip-rule="evenodd" d="M120 60C120 93.1371 93.1371 120 60 120C26.8629 120 0 93.1371 0 60C0 26.8629 26.8629 0 60 0C93.1371 0 120 26.8629 120 60ZM60.6127 80.8513H57.556C55.4033 80.8513 53.6538 82.6008 53.6538 84.7535V88.9744C53.6538 91.1272 55.4033 92.8766 57.556 92.8766H60.6127C62.7655 92.8766 64.515 91.1272 64.515 88.9744V84.7535C64.515 82.5943 62.7655 80.8513 60.6127 80.8513ZM44.6981 48.8791L39.0594 48.1767C37.8562 48.0271 37.0302 46.8954 37.2579 45.6857C37.9929 41.5429 40.0806 37.9528 43.5145 34.9221C47.5468 31.3646 52.8343 29.589 59.3901 29.589C66.284 29.589 71.7732 31.3906 75.8445 34.9936C79.9223 38.5967 81.958 42.7916 81.958 47.5718C81.958 50.2188 81.2036 52.7228 79.7077 55.0836C78.2053 57.451 75.0055 60.6638 70.0952 64.7287C67.5588 66.8358 65.9784 68.5268 65.3671 69.8081C65.0028 70.556 64.7622 71.6552 64.6321 73.1054C64.45 75.1216 62.772 76.676 60.7429 76.676H57.556C55.3318 76.676 53.5628 74.8289 53.6538 72.6111C53.7579 70.0226 54.1741 67.4407 55.3708 65.1123C56.5415 62.836 58.8762 60.2736 62.3882 57.4315C65.8938 54.5893 67.9944 52.7293 68.6773 51.8448C69.7309 50.453 70.2577 48.9181 70.2577 47.2401C70.2577 44.9053 69.3277 42.9152 67.4546 41.2502C65.5816 39.5918 63.0581 38.7593 59.8908 38.7593C56.8341 38.7593 54.2782 39.6308 52.2229 41.3608C50.7726 42.5835 49.641 44.2614 48.828 46.3881C48.1841 48.0726 46.4867 49.1002 44.6981 48.8791Z" fill="white"/>
</svg>
