<svg width="27" height="24" viewBox="0 0 27 24" fill="none" xmlns="http://www.w3.org/2000/svg">
<g id="noun-check-box-30439 11" clip-path="url(#clip0_168_4262)">
<g id="Group">
<path id="Vector" d="M11.634 16.1329C11.2948 16.1329 10.9557 16.0079 10.6972 15.7579L5.78662 11.0119C5.26904 10.5117 5.26904 9.7013 5.78662 9.20114C6.30336 8.70154 7.14291 8.70154 7.66006 9.20114L11.6343 13.042L24.7249 0.390385C25.2416 -0.109214 26.0812 -0.109214 26.5983 0.390385C27.1159 0.890588 27.1159 1.70099 26.5983 2.20115L12.5701 15.758C12.312 16.0078 11.9725 16.1328 11.6335 16.1328L11.634 16.1329Z" fill="#10100F"/>
<path id="Vector_2" d="M22.8801 23.9716H1.35234C0.620568 23.9716 0.0273438 23.3983 0.0273438 22.6911V1.88538C0.0273438 1.17838 0.620568 0.604858 1.35234 0.604858H16.1936C16.9252 0.604858 17.5186 1.17817 17.5186 1.88538C17.5186 2.59258 16.9254 3.16589 16.1936 3.16589H2.67733V21.4105H21.5557L21.5559 12.2882C21.5559 11.5812 22.1491 11.0077 22.8809 11.0077C23.6126 11.0077 24.2059 11.581 24.2059 12.2882V22.6911C24.2054 23.3983 23.6122 23.9716 22.8807 23.9716H22.8801Z" fill="#10100F"/>
</g>
</g>
<defs>
<clipPath id="clip0_168_4262">
<rect width="27" height="24" fill="white"/>
</clipPath>
</defs>
</svg>
