<svg width="33" height="34" viewBox="0 0 33 34" fill="none" xmlns="http://www.w3.org/2000/svg">
<g clip-path="url(#clip0_48_728)">
<path d="M16.5 0.5C7.40205 0.5 0 7.90205 0 17C0 26.0979 7.40205 33.5 16.5 33.5C25.5979 33.5 33 26.0979 33 17C33 7.90205 25.5979 0.5 16.5 0.5ZM23.1735 21.7292C23.4421 21.9976 23.4421 22.4329 23.1735 22.7015L22.2015 23.6735C21.9329 23.9419 21.4978 23.9419 21.2292 23.6735L16.5 18.9444L11.7708 23.6735C11.5022 23.942 11.0671 23.942 10.7985 23.6735L9.82646 22.7015C9.55788 22.433 9.55788 21.9977 9.82646 21.7292L14.5556 16.9999L9.82646 12.2708C9.55788 12.0023 9.55788 11.567 9.82646 11.2985L10.7985 10.3264C11.0671 10.0579 11.5022 10.0579 11.7708 10.3264L16.5 15.0556L21.2292 10.3264C21.4978 10.0579 21.9329 10.0579 22.2015 10.3264L23.1735 11.2985C23.4421 11.5669 23.4421 12.0022 23.1735 12.2708L18.4444 16.9999L23.1735 21.7292Z" fill="#FCFCFA"/>
</g>
<defs>
<clipPath id="clip0_48_728">
<rect width="33" height="33" fill="white" transform="translate(0 0.5)"/>
</clipPath>
</defs>
</svg>
