<svg width="24" height="25" viewBox="0 0 24 25" fill="none" xmlns="http://www.w3.org/2000/svg">
<g id="9104258_home_house_homepage_icon 1">
<g id="_icons">
<path id="Vector" d="M7 21.5H17C19.2 21.5 21 19.7 21 17.5V11C21 9.7 20.4 8.6 19.4 7.8L14.4 4C13 3 11 3 9.6 4.1L4.6 7.8C3.6 8.6 3 9.7 3 11V17.5C3 19.7 4.8 21.5 7 21.5ZM5 11C5 10.4 5.3 9.8 5.8 9.4L10.8 5.6C11.2 5.3 11.6 5.2 12 5.2C12.4 5.2 12.8 5.3 13.2 5.6L18.2 9.4C18.7 9.8 19 10.4 19 11V17.5C19 18.6 18.1 19.5 17 19.5H7C5.9 19.5 5 18.6 5 17.5V11Z" fill="#FCFCFA"/>
</g>
</g>
</svg>
