<svg width="141" height="80" viewBox="0 0 141 80" fill="none" xmlns="http://www.w3.org/2000/svg">
<g id="Black" clip-path="url(#clip0_367_224)">
<g id="Group">
<g id="Group_2">
<path id="Vector" d="M89.1564 28.9846H83.1224V45.0462H80.6595V28.9846H74.687V26.8308H89.1564V28.9846Z" fill="#FCFCFA"/>
<path id="Vector_2" d="M106.273 45.0462H103.564L101.471 39.5077H93.8359L91.804 45.0462H89.2795L96.2988 26.8308H98.8848L106.273 45.0462ZM100.732 37.6L97.5302 29.1692L94.4516 37.6H100.732Z" fill="#FCFCFA"/>
<path id="Vector_3" d="M123.021 45.0462H120.373L118.649 40.1846C118.465 39.7538 118.28 39.3846 118.034 39.0154C117.787 38.6461 117.48 38.3385 117.11 38.0923C116.741 37.8461 116.371 37.6 115.94 37.4769C115.509 37.3538 115.078 37.2923 114.647 37.2923H110.214V45.1077H107.751V26.8923H115.817C116.494 26.8923 117.172 26.9538 117.726 27.0154C118.28 27.0769 118.834 27.2 119.265 27.3231C119.696 27.4461 120.127 27.6923 120.497 28C120.866 28.3077 121.174 28.6769 121.482 29.1077C121.728 29.5385 121.974 29.9692 122.098 30.5231C122.221 31.0154 122.344 31.5692 122.344 32.1231C122.344 32.7385 122.221 33.3538 122.036 33.8462C121.851 34.4 121.543 34.8308 121.235 35.2615C120.866 35.6923 120.435 36 119.942 36.3077C119.45 36.6154 118.896 36.8 118.218 36.9846C119.511 37.4154 120.435 38.5231 121.112 40.3077L123.021 45.0462ZM110.214 35.0769H115.632C116.371 35.0769 117.049 35.0154 117.603 34.8923C118.157 34.7692 118.588 34.5846 118.957 34.3385C119.327 34.0923 119.573 33.7846 119.696 33.3538C119.881 32.9231 119.942 32.4308 119.942 31.8769C119.942 29.7846 118.649 28.7385 116.002 28.7385H110.214V35.0769Z" fill="#FCFCFA"/>
<path id="Vector_4" d="M140.631 45.0462H137.429L130.964 35.9385L128.132 38.7077V45.0462H125.73V26.8308H128.132V35.8769L137.059 26.8308H140.323L132.688 34.3385L140.631 45.0462Z" fill="#FCFCFA"/>
</g>
<g id="Group_3">
<path id="Vector_5" d="M56.8925 47.5692C54.6144 47.2615 52.7056 46.7692 51.1048 46.0308C49.5039 45.2923 48.2109 44.3692 47.2257 43.2615C46.2406 42.1539 45.5017 40.9231 45.1323 39.5692C44.7013 38.1539 44.5781 36.7385 44.7013 35.1385L48.765 35.6308C48.7034 36.8615 48.8882 37.9077 49.3192 38.8308C49.7502 39.7539 50.3043 40.5538 51.1048 41.2308C51.8436 41.9077 52.7672 42.4615 53.8139 42.8308C54.8606 43.2615 56.0305 43.5077 57.2004 43.6923C58.3703 43.8154 59.4786 43.8154 60.4637 43.6923C61.4489 43.5692 62.3109 43.3231 63.0497 42.8923C63.7886 42.5231 64.4043 42.0308 64.8353 41.4154C65.2663 40.8 65.5742 40.0615 65.6973 39.2615C65.8205 38.4 65.6973 37.6 65.451 36.9846C65.2048 36.3692 64.7122 35.7538 63.9733 35.2C63.2344 34.6462 62.2493 34.0923 61.0794 33.6C59.848 33.1077 58.3703 32.4923 56.5847 31.8769C54.7991 31.2615 53.3214 30.6462 52.0899 29.9077C50.8585 29.2308 49.8733 28.4308 49.196 27.6923C47.7799 26.1538 47.2257 24.2462 47.5336 21.9077C47.7183 20.6154 48.0877 19.4462 48.765 18.4615C49.4423 17.4769 50.3043 16.6154 51.4126 15.9385C52.5209 15.2615 53.7524 14.8308 55.1685 14.5846C56.5847 14.3385 58.1855 14.2769 59.848 14.5231C61.6336 14.7692 63.2344 15.1385 64.6506 15.7539C66.0668 16.3692 67.2366 17.1077 68.2218 18.0923C69.2069 19.0154 69.8842 20.1231 70.3768 21.4154C70.8694 22.6462 70.9925 24.0615 70.8694 25.6L66.8056 25.1077C66.8672 21.2308 64.4659 18.9538 59.6017 18.4C57.262 18.0923 55.3532 18.3385 53.9986 19.0769C52.5825 19.8154 51.8436 20.9231 51.6589 22.3385C51.5973 23.0154 51.5973 23.5692 51.7821 24.1231C51.9668 24.6154 52.2746 25.1077 52.8288 25.5385C53.3214 25.9692 54.0602 26.4 54.9838 26.8308C55.9074 27.2615 57.0157 27.6923 58.4318 28.1846C61.141 29.1077 63.296 30.0308 64.9585 30.8308C65.7589 31.2 66.4362 31.6923 67.1135 32.2462C67.7908 32.8 68.3449 33.4154 68.8375 34.1538C69.3301 34.8923 69.6379 35.6923 69.8842 36.5538C70.1305 37.4154 70.1305 38.4 70.0074 39.5077C69.8227 40.8615 69.3917 42.0923 68.6528 43.2C67.9139 44.3077 66.9903 45.1692 65.882 45.9077C64.7122 46.6462 63.4192 47.1385 61.9414 47.4462C60.2174 47.7539 58.6165 47.8154 56.8925 47.5692Z" fill="#FCFCFA"/>
<path id="Vector_6" d="M15.2082 47.6923L21.7348 48.4923C22.4737 48.5538 23.0894 48.6769 23.6436 48.8C24.1977 48.9231 24.7519 49.1077 25.2444 49.2923C25.6754 49.4769 26.1064 49.7231 26.4759 50.0923C26.8453 50.4615 27.0916 50.8308 27.3379 51.2615C27.5842 51.6923 27.7073 52.1846 27.8305 52.7385C27.892 53.2923 27.9536 53.7846 27.8305 54.3385C27.5842 56.1231 26.9069 57.3538 25.6754 58.1538C24.444 58.9538 22.7816 59.2 20.6265 58.8923L16.2549 58.3385L15.3929 65.2923L13.1147 64.9846L15.2082 47.6923ZM16.5012 56.3077L20.9344 56.8615C21.6733 56.9231 22.289 56.9846 22.8431 56.8615C23.3973 56.8 23.8283 56.6154 24.1977 56.3692C24.5671 56.1231 24.8134 55.8154 25.0597 55.4462C25.2444 55.0769 25.3676 54.5846 25.4292 54.0923C25.4907 53.7231 25.4907 53.4154 25.4292 53.1077C25.3676 52.8 25.306 52.4923 25.1829 52.1846C25.0597 51.8769 24.875 51.6923 24.6903 51.4462C24.5056 51.2615 24.2593 51.0769 24.013 50.9538C23.4588 50.7692 22.72 50.5846 21.7348 50.4615L17.3632 49.9077L16.5012 56.3077Z" fill="#FCFCFA"/>
<path id="Vector_7" d="M43.8391 68.8615L41.3147 68.5538L40.2679 63.6923C40.1448 63.2615 40.0216 62.8923 39.7754 62.5231C39.5906 62.1538 39.3443 61.8461 39.0365 61.5385C38.7286 61.2308 38.4208 60.9846 37.9898 60.8C37.6203 60.6154 37.1893 60.4923 36.7583 60.4308L32.5099 59.9385L31.5863 67.3846L29.3081 67.0769L31.4631 49.6615L39.1596 50.5846C39.8369 50.6461 40.4526 50.7692 41.0068 50.8923C41.5609 51.0154 42.0535 51.2 42.4229 51.3846C42.8539 51.5692 43.2234 51.8154 43.5312 52.1846C43.8391 52.4923 44.0854 52.9231 44.3317 53.3538C44.5164 53.7846 44.7011 54.2769 44.7627 54.7692C44.8243 55.2615 44.8243 55.7538 44.7627 56.3077C44.7011 56.9231 44.5164 57.4769 44.2701 57.9077C44.0238 58.4 43.716 58.8308 43.3465 59.1385C42.9771 59.5077 42.4845 59.7538 41.9919 60C41.4994 60.1846 40.8836 60.3692 40.2679 60.4308C41.4378 60.9846 42.2382 62.1538 42.6077 63.9385L43.8391 68.8615ZM32.7561 57.8461L37.9282 58.4615C38.6671 58.5231 39.2828 58.5846 39.7754 58.5231C40.3295 58.4615 40.7605 58.3385 41.1299 58.1538C41.4994 57.9692 41.7457 57.6615 41.9919 57.2923C42.1767 56.9231 42.2998 56.4923 42.4229 55.9385C42.6692 53.9692 41.5609 52.8 39.0365 52.4923L33.5566 51.8154L32.7561 57.8461Z" fill="#FCFCFA"/>
<path id="Vector_8" d="M56.5846 52.4308C57.8161 52.5538 58.8628 52.9231 59.848 53.4769C60.8331 54.0308 61.6335 54.7692 62.2493 55.6308C62.865 56.4923 63.3576 57.5385 63.6038 58.7077C63.8501 59.8769 63.9117 61.1077 63.7886 62.4615C63.6039 63.8154 63.296 64.9846 62.7418 66.0923C62.1877 67.1385 61.5104 68 60.6484 68.7385C59.7864 69.4154 58.8628 69.9692 57.8161 70.2769C56.7693 70.5846 55.5995 70.6462 54.368 70.5231C53.1366 70.4 52.0283 70.0308 51.1047 69.4769C50.1196 68.9231 49.3191 68.1846 48.7034 67.3231C48.0877 66.4615 47.5951 65.4154 47.3488 64.2462C47.1025 63.0769 47.041 61.8462 47.1641 60.4923C47.3488 59.1385 47.6567 57.9692 48.2108 56.8615C48.765 55.8154 49.4423 54.9538 50.3043 54.2154C51.1663 53.5385 52.0899 53.0462 53.1982 52.7385C54.2449 52.3692 55.3532 52.3077 56.5846 52.4308ZM54.6143 68.4923C55.4763 68.6154 56.2768 68.5538 57.0772 68.3077C57.8161 68.0615 58.5549 67.6923 59.1091 67.1385C59.7248 66.5846 60.2174 65.9077 60.5868 65.1077C61.0178 64.2462 61.2641 63.3231 61.3873 62.2154C61.5104 61.1077 61.5104 60.1231 61.3257 59.2C61.141 58.2769 60.8331 57.5385 60.4021 56.8615C59.9711 56.1846 59.417 55.6308 58.6781 55.2615C58.0008 54.8308 57.2004 54.5846 56.3999 54.5231C55.5379 54.4 54.7375 54.4615 53.937 54.7077C53.1982 54.9538 52.4593 55.3231 51.8436 55.8154C51.2279 56.3692 50.7353 57.0462 50.3043 57.8462C49.8733 58.7077 49.627 59.6308 49.5038 60.7385C49.3807 61.8462 49.3807 62.8308 49.5654 63.7538C49.7501 64.6769 50.058 65.4154 50.5506 66.0923C50.9816 66.7692 51.5973 67.3231 52.2746 67.6923C52.9519 68.1231 53.7523 68.3692 54.6143 68.4923Z" fill="#FCFCFA"/>
</g>
<path id="Vector_9" d="M74.5638 30.5231L68.8376 77.0462L2.77074 68.9231L10.8983 2.89231L76.9651 11.0154L75.1795 25.2923H77.7039L79.7358 8.86154L8.74323 0.123077L0 71.0769L70.9926 79.7539L77.0266 30.5231H74.5638Z" fill="#FCFCFA"/>
<g id="design &#38;&#226;&#128;&#168;construction">
<path d="M82.447 59.7987C82.91 59.7987 83.2538 59.65 83.4782 59.3528C83.7055 59.0555 83.8192 58.6306 83.8192 58.0781C83.8192 57.4555 83.7097 56.9872 83.4909 56.6731C83.2748 56.3562 82.9241 56.1977 82.4386 56.1977C82.2226 56.1977 82.0317 56.244 81.8662 56.3365C81.7006 56.4291 81.5673 56.5581 81.4663 56.7236C81.3653 56.889 81.2881 57.0797 81.2348 57.2957C81.1843 57.5088 81.1591 57.743 81.1591 57.9982C81.1591 58.3572 81.2026 58.6685 81.2895 58.9321C81.3793 59.1957 81.5224 59.4061 81.7189 59.5631C81.9153 59.7202 82.158 59.7987 82.447 59.7987ZM83.8318 59.6388C83.6803 59.8716 83.4782 60.0567 83.2257 60.1941C82.9732 60.3315 82.6912 60.4002 82.3797 60.4002C81.7708 60.4002 81.2938 60.1843 80.9486 59.7524C80.6035 59.3177 80.4309 58.7274 80.4309 57.9814C80.4309 57.269 80.6063 56.6941 80.957 56.2566C81.3078 55.8163 81.7778 55.5962 82.3671 55.5962C82.6729 55.5962 82.9605 55.6635 83.2299 55.7981C83.5021 55.9299 83.7055 56.108 83.8402 56.3323L83.8276 55.9327V53.9008L84.5221 53.8588V60.3077H83.9244L83.8318 59.6388Z" fill="#FCFCFA"/>
<path d="M89.269 56.5469C89.0642 56.3001 88.7822 56.1767 88.423 56.1767C88.0638 56.1767 87.7706 56.3043 87.5433 56.5595C87.316 56.8119 87.1827 57.1583 87.1435 57.5986H89.5805C89.5805 57.1414 89.4767 56.7909 89.269 56.5469ZM88.5619 60.4045C87.8913 60.4045 87.3623 60.1913 86.9751 59.765C86.5907 59.3387 86.3985 58.7554 86.3985 58.015C86.3985 57.2999 86.5851 56.7208 86.9583 56.2777C87.3315 55.8317 87.8225 55.6046 88.4314 55.5962C89.0039 55.5962 89.457 55.7925 89.7909 56.1851C90.1277 56.5749 90.296 57.0966 90.296 57.75C90.296 57.7837 90.2946 57.8454 90.2918 57.9351C90.2918 58.0248 90.2918 58.0893 90.2918 58.1286H87.1224C87.1308 58.6531 87.2655 59.0625 87.5265 59.357C87.7903 59.6486 88.1438 59.7945 88.5872 59.7945C89.0754 59.7945 89.5651 59.6655 90.0561 59.4075L90.1655 59.9754C89.6969 60.2614 89.1624 60.4045 88.5619 60.4045Z" fill="#FCFCFA"/>
<path d="M93.5109 60.4045C93.1966 60.4045 92.9062 60.3708 92.6396 60.3035C92.3758 60.2362 92.1612 60.1492 91.9956 60.0427L92.084 59.4495C92.5526 59.6991 93.0128 59.8239 93.4646 59.8239C94.1492 59.8239 94.5014 59.5827 94.521 59.1004C94.521 58.8956 94.4481 58.7344 94.3022 58.6166C94.1563 58.4988 93.8701 58.367 93.4435 58.2212L93.0942 58.0992C92.6901 57.9645 92.4011 57.7977 92.2271 57.5986C92.056 57.3994 91.969 57.1512 91.9662 56.854C91.9662 56.4922 92.1107 56.1921 92.3997 55.9537C92.6915 55.7154 93.09 55.5962 93.5951 55.5962C94.117 55.5962 94.5926 55.6971 95.0219 55.899L94.8157 56.4375C94.3807 56.258 93.9739 56.1683 93.5951 56.1683C93.3004 56.1683 93.0689 56.2272 92.9006 56.345C92.735 56.4599 92.6522 56.6226 92.6522 56.8329C92.6522 57.0124 92.7126 57.1498 92.8332 57.2452C92.9539 57.3406 93.1952 57.4499 93.5572 57.5733C93.6498 57.607 93.7662 57.6462 93.9065 57.6911C94.3723 57.8426 94.702 58.022 94.8956 58.2296C95.0893 58.4343 95.1861 58.7119 95.1861 59.0625C95.1805 59.4888 95.0275 59.8197 94.7273 60.0553C94.427 60.2881 94.0216 60.4045 93.5109 60.4045Z" fill="#FCFCFA"/>
<path d="M97.8411 55.6929V60.3077H97.134V55.6929H97.8411ZM97.8411 54.0144V54.8474H97.134V54.0144H97.8411Z" fill="#FCFCFA"/>
<path d="M101.822 59.7061C102.061 59.7061 102.27 59.6641 102.449 59.5799C102.629 59.4958 102.769 59.3794 102.87 59.2308C102.971 59.0821 103.045 58.9167 103.093 58.7344C103.144 58.5521 103.169 58.353 103.169 58.137V57.7963C103.169 57.5719 103.144 57.3658 103.093 57.1779C103.043 56.9872 102.964 56.8175 102.857 56.6689C102.754 56.5174 102.613 56.3996 102.437 56.3155C102.263 56.2314 102.059 56.1893 101.826 56.1893C101.633 56.1893 101.456 56.2258 101.296 56.2987C101.139 56.3716 101.008 56.4684 100.904 56.5889C100.803 56.7067 100.716 56.8456 100.643 57.0054C100.573 57.1625 100.523 57.3223 100.492 57.485C100.461 57.6476 100.446 57.8117 100.446 57.9772C100.446 58.1398 100.463 58.3011 100.496 58.4609C100.53 58.6208 100.583 58.7764 100.656 58.9279C100.729 59.0793 100.817 59.2125 100.921 59.3275C101.025 59.4397 101.154 59.5309 101.309 59.601C101.466 59.6711 101.637 59.7061 101.822 59.7061ZM100.74 62.4195L100.677 61.7843H101.536C101.774 61.7843 101.982 61.7674 102.159 61.7338C102.336 61.7001 102.483 61.644 102.601 61.5655C102.719 61.4898 102.814 61.4043 102.887 61.3089C102.96 61.2164 103.015 61.0944 103.051 60.9429C103.09 60.7943 103.116 60.6456 103.127 60.497C103.141 60.3512 103.148 60.1717 103.148 59.9585V59.5505C102.98 59.7917 102.784 59.9782 102.563 60.11C102.341 60.239 102.059 60.3035 101.717 60.3035C101.453 60.3035 101.209 60.2586 100.984 60.1689C100.763 60.0763 100.575 59.9543 100.42 59.8029C100.269 59.6514 100.138 59.4762 100.029 59.277C99.9224 59.0779 99.8438 58.8718 99.7933 58.6587C99.7456 58.4455 99.7217 58.231 99.7217 58.015C99.7217 57.6785 99.7624 57.3672 99.8438 57.0811C99.928 56.7951 100.051 56.5399 100.214 56.3155C100.377 56.0912 100.59 55.9159 100.854 55.7897C101.121 55.6607 101.425 55.5962 101.767 55.5962C102.07 55.5962 102.334 55.6551 102.559 55.7728C102.786 55.8878 102.989 56.0659 103.169 56.3071V55.6929H103.855V59.9754C103.855 60.1717 103.849 60.3428 103.838 60.4886C103.83 60.6372 103.806 60.8013 103.767 60.9808C103.73 61.1603 103.68 61.3145 103.615 61.4435C103.551 61.5725 103.459 61.7015 103.341 61.8305C103.226 61.9623 103.088 62.0675 102.925 62.146C102.765 62.2274 102.566 62.2933 102.327 62.3438C102.089 62.3942 101.819 62.4195 101.519 62.4195H100.74Z" fill="#FCFCFA"/>
<path d="M105.891 60.3077V55.6929H106.481L106.569 56.3534C106.751 56.1262 106.979 55.9439 107.251 55.8065C107.526 55.6663 107.822 55.5962 108.139 55.5962C108.672 55.5962 109.066 55.7462 109.322 56.0463C109.577 56.3436 109.705 56.8021 109.705 57.4219V60.3077H109.002C109.002 58.4567 109 57.4654 108.998 57.3335C108.986 56.9409 108.906 56.6535 108.758 56.4712C108.612 56.2889 108.366 56.1977 108.021 56.1977C107.659 56.1977 107.357 56.2847 107.116 56.4585C106.875 56.6324 106.718 56.8582 106.645 57.1358C106.617 57.3237 106.603 57.5397 106.603 57.7837V60.3077H105.891Z" fill="#FCFCFA"/>
<path d="M119.025 56.7783C118.764 56.495 118.578 56.258 118.465 56.0673C118.353 55.8766 118.297 55.6565 118.297 55.4069C118.297 54.989 118.444 54.6581 118.739 54.4141C119.036 54.1673 119.435 54.0439 119.934 54.0439C120.229 54.0439 120.497 54.0902 120.738 54.1827C120.982 54.2724 121.182 54.4183 121.336 54.6202C121.493 54.8193 121.572 55.0577 121.572 55.3353C121.572 55.5148 121.535 55.6845 121.462 55.8444C121.392 56.0014 121.288 56.1444 121.151 56.2734C121.016 56.4024 120.867 56.5188 120.705 56.6226C120.545 56.7264 120.358 56.8273 120.145 56.9255L121.833 58.7302C122.057 58.4946 122.256 58.1805 122.43 57.7879L122.94 58.1749C122.766 58.5563 122.542 58.9069 122.27 59.2266L123.032 60.1352C122.825 60.2137 122.604 60.2867 122.371 60.354L121.799 59.7061C121.221 60.1717 120.547 60.4045 119.779 60.4045C119.069 60.4045 118.528 60.2502 118.158 59.9417C117.791 59.6304 117.607 59.1985 117.607 58.646C117.607 58.217 117.727 57.8566 117.969 57.5649C118.213 57.2732 118.565 57.011 119.025 56.7783ZM119.459 57.2536C119.105 57.4331 118.832 57.6294 118.638 57.8426C118.447 58.0557 118.352 58.3081 118.352 58.5998C118.352 58.9615 118.481 59.2448 118.739 59.4495C118.997 59.6514 119.356 59.7524 119.816 59.7524C120.366 59.7524 120.866 59.5743 121.315 59.2182C121.107 58.9938 120.797 58.6657 120.385 58.2338C119.975 57.8019 119.666 57.4752 119.459 57.2536ZM119.947 54.6496C119.686 54.6496 119.477 54.717 119.32 54.8516C119.163 54.9834 119.084 55.1685 119.084 55.4069C119.084 55.5976 119.135 55.7728 119.236 55.9327C119.339 56.0897 119.499 56.272 119.715 56.4796C119.887 56.3954 120.024 56.3225 120.128 56.2608C120.235 56.1991 120.344 56.1234 120.456 56.0337C120.568 55.9411 120.65 55.8416 120.7 55.735C120.754 55.6284 120.78 55.5106 120.78 55.3816C120.78 55.1488 120.7 54.9694 120.54 54.8432C120.38 54.7141 120.183 54.6496 119.947 54.6496Z" fill="#FCFCFA"/>
<path d="M82.5986 70.866C81.9195 70.866 81.3878 70.6458 81.0033 70.2055C80.6217 69.7652 80.4309 69.1889 80.4309 68.4766C80.4337 67.7586 80.6287 67.1767 81.016 66.7308C81.406 66.2821 81.9391 66.0577 82.6154 66.0577C82.8539 66.0577 83.084 66.0871 83.3057 66.146C83.5302 66.2049 83.7069 66.2821 83.836 66.3774L83.6424 66.9243C83.3141 66.7476 82.9675 66.6593 82.6028 66.6593C82.1566 66.6593 81.8031 66.8219 81.5421 67.1472C81.2839 67.4726 81.1549 67.9171 81.1549 68.4808C81.1549 69.0305 81.2825 69.4666 81.5379 69.7891C81.796 70.1088 82.1524 70.2686 82.607 70.2686C82.969 70.2686 83.3393 70.1705 83.7182 69.9742L83.8065 70.5337C83.5007 70.7552 83.098 70.866 82.5986 70.866Z" fill="#FCFCFA"/>
<path d="M86.0954 68.4724C86.0954 69.0192 86.2161 69.4581 86.4574 69.7891C86.7015 70.1172 87.0565 70.2813 87.5223 70.2813C87.9825 70.2813 88.329 70.1172 88.5619 69.7891C88.7976 69.4609 88.9155 69.0192 88.9155 68.4639C88.9155 67.9002 88.799 67.4571 88.5661 67.1346C88.336 66.8093 87.9839 66.6466 87.5096 66.6466C87.0495 66.6466 86.6987 66.8121 86.4574 67.143C86.2161 67.474 86.0954 67.9171 86.0954 68.4724ZM89.6436 68.4597C89.6436 69.1749 89.4528 69.7554 89.0712 70.2013C88.6896 70.6444 88.162 70.866 87.4886 70.866C86.8404 70.866 86.3241 70.6416 85.9397 70.1929C85.5581 69.7442 85.3673 69.1679 85.3673 68.4639C85.3673 67.746 85.5595 67.1655 85.9439 66.7224C86.3283 66.2793 86.8558 66.0577 87.5265 66.0577C88.1859 66.0577 88.7036 66.2807 89.0796 66.7266C89.4556 67.1697 89.6436 67.7474 89.6436 68.4597Z" fill="#FCFCFA"/>
<path d="M91.5032 70.7692V66.1545H92.0924L92.1808 66.8149C92.3632 66.5877 92.5905 66.4055 92.8627 66.268C93.1377 66.1278 93.4337 66.0577 93.7508 66.0577C94.2839 66.0577 94.6782 66.2077 94.9335 66.5078C95.1889 66.8051 95.3166 67.2636 95.3166 67.8834V70.7692H94.6136C94.6136 68.9183 94.6122 67.9269 94.6094 67.7951C94.5982 67.4025 94.5182 67.115 94.3695 66.9327C94.2236 66.7504 93.9781 66.6593 93.6329 66.6593C93.271 66.6593 92.9693 66.7462 92.728 66.9201C92.4867 67.094 92.3295 67.3197 92.2566 67.5974C92.2285 67.7853 92.2145 68.0012 92.2145 68.2452V70.7692H91.5032Z" fill="#FCFCFA"/>
<path d="M98.725 70.866C98.4107 70.866 98.1203 70.8323 97.8538 70.765C97.59 70.6977 97.3753 70.6108 97.2098 70.5042L97.2982 69.9111C97.7668 70.1607 98.227 70.2855 98.6787 70.2855C99.3634 70.2855 99.7155 70.0443 99.7352 69.5619C99.7352 69.3572 99.6622 69.1959 99.5163 69.0781C99.3704 68.9603 99.0842 68.8285 98.6577 68.6827L98.3083 68.5607C97.9043 68.4261 97.6152 68.2592 97.4413 68.0601C97.2701 67.861 97.1831 67.6128 97.1803 67.3155C97.1803 66.9537 97.3248 66.6537 97.6138 66.4153C97.9057 66.1769 98.3041 66.0577 98.8092 66.0577C99.3311 66.0577 99.8067 66.1587 100.236 66.3606L100.03 66.899C99.5949 66.7196 99.188 66.6298 98.8092 66.6298C98.5146 66.6298 98.2831 66.6887 98.1147 66.8065C97.9492 66.9215 97.8664 67.0841 97.8664 67.2945C97.8664 67.474 97.9267 67.6114 98.0474 67.7067C98.168 67.8021 98.4093 67.9115 98.7713 68.0349C98.8639 68.0685 98.9804 68.1078 99.1207 68.1527C99.5865 68.3041 99.9162 68.4836 100.11 68.6911C100.303 68.8958 100.4 69.1735 100.4 69.524C100.395 69.9503 100.242 70.2813 99.9414 70.5168C99.6412 70.7496 99.2357 70.866 98.725 70.866Z" fill="#FCFCFA"/>
<path d="M103.699 70.8534C103.245 70.8534 102.922 70.7426 102.731 70.521C102.54 70.2995 102.439 69.9419 102.428 69.4483V66.6761H101.742L101.772 66.2133L102.424 66.1545L102.664 65.0986L103.127 65.0817V66.1545H104.411V66.6761H103.127V69.3221C103.127 69.6727 103.18 69.9195 103.287 70.0625C103.393 70.2055 103.576 70.2771 103.834 70.2771C103.927 70.2771 104.127 70.2546 104.436 70.2097L104.465 70.765C104.131 70.8239 103.876 70.8534 103.699 70.8534Z" fill="#FCFCFA"/>
<path d="M108.147 66.1124C108.274 66.1124 108.389 66.1208 108.492 66.1376L108.467 66.7855C108.338 66.763 108.226 66.7518 108.131 66.7518C107.738 66.7518 107.418 66.8892 107.171 67.1641C106.927 67.4361 106.805 67.774 106.805 68.1779V70.7692H106.102C106.099 67.9367 106.098 66.3984 106.098 66.1545H106.683L106.75 66.9832C106.91 66.7224 107.113 66.512 107.36 66.3522C107.607 66.1923 107.87 66.1124 108.147 66.1124Z" fill="#FCFCFA"/>
<path d="M109.919 69.2296V66.1545H110.626V69.238C110.626 69.4399 110.654 69.611 110.71 69.7512C110.769 69.8914 110.852 70.0008 110.958 70.0793C111.068 70.1551 111.19 70.2097 111.324 70.2434C111.462 70.2771 111.619 70.2939 111.796 70.2939C112.161 70.2939 112.444 70.2139 112.646 70.0541C112.851 69.8942 112.953 69.6222 112.953 69.238V66.1545H113.66V69.2296C113.66 69.4652 113.627 69.6769 113.559 69.8648C113.492 70.0527 113.401 70.2097 113.286 70.3359C113.173 70.4593 113.037 70.5617 112.877 70.643C112.718 70.7244 112.548 70.7833 112.368 70.8197C112.191 70.8562 112.001 70.8744 111.796 70.8744C111.594 70.8744 111.403 70.8562 111.223 70.8197C111.044 70.7833 110.873 70.7244 110.71 70.643C110.55 70.5589 110.411 70.4551 110.293 70.3317C110.178 70.2055 110.087 70.0485 110.02 69.8606C109.952 69.6727 109.919 69.4623 109.919 69.2296Z" fill="#FCFCFA"/>
<path d="M117.523 70.866C116.844 70.866 116.313 70.6458 115.928 70.2055C115.547 69.7652 115.356 69.1889 115.356 68.4766C115.359 67.7586 115.554 67.1767 115.941 66.7308C116.331 66.2821 116.864 66.0577 117.54 66.0577C117.779 66.0577 118.009 66.0871 118.23 66.146C118.455 66.2049 118.632 66.2821 118.761 66.3774L118.567 66.9243C118.239 66.7476 117.892 66.6593 117.528 66.6593C117.081 66.6593 116.728 66.8219 116.467 67.1472C116.209 67.4726 116.08 67.9171 116.08 68.4808C116.08 69.0305 116.207 69.4666 116.463 69.7891C116.721 70.1088 117.077 70.2686 117.532 70.2686C117.894 70.2686 118.264 70.1705 118.643 69.9742L118.731 70.5337C118.426 70.7552 118.023 70.866 117.523 70.866Z" fill="#FCFCFA"/>
<path d="M121.98 70.8534C121.525 70.8534 121.203 70.7426 121.012 70.521C120.821 70.2995 120.72 69.9419 120.709 69.4483V66.6761H120.023L120.052 66.2133L120.705 66.1545L120.944 65.0986L121.407 65.0817V66.1545H122.691V66.6761H121.407V69.3221C121.407 69.6727 121.461 69.9195 121.567 70.0625C121.674 70.2055 121.856 70.2771 122.115 70.2771C122.207 70.2771 122.408 70.2546 122.716 70.2097L122.746 70.765C122.412 70.8239 122.157 70.8534 121.98 70.8534Z" fill="#FCFCFA"/>
<path d="M125.186 66.1545V70.7692H124.479V66.1545H125.186ZM125.186 64.476V65.3089H124.479V64.476H125.186Z" fill="#FCFCFA"/>
<path d="M127.888 68.4724C127.888 69.0192 128.008 69.4581 128.25 69.7891C128.494 70.1172 128.849 70.2813 129.315 70.2813C129.775 70.2813 130.121 70.1172 130.354 69.7891C130.59 69.4609 130.708 69.0192 130.708 68.4639C130.708 67.9002 130.591 67.4571 130.358 67.1346C130.128 66.8093 129.776 66.6466 129.302 66.6466C128.842 66.6466 128.491 66.8121 128.25 67.143C128.008 67.474 127.888 67.9171 127.888 68.4724ZM131.436 68.4597C131.436 69.1749 131.245 69.7554 130.863 70.2013C130.482 70.6444 129.954 70.866 129.281 70.866C128.633 70.866 128.116 70.6416 127.732 70.1929C127.35 69.7442 127.16 69.1679 127.16 68.4639C127.16 67.746 127.352 67.1655 127.736 66.7224C128.121 66.2793 128.648 66.0577 129.319 66.0577C129.978 66.0577 130.496 66.2807 130.872 66.7266C131.248 67.1697 131.436 67.7474 131.436 68.4597Z" fill="#FCFCFA"/>
<path d="M133.295 70.7692V66.1545H133.885L133.973 66.8149C134.155 66.5877 134.383 66.4055 134.655 66.268C134.93 66.1278 135.226 66.0577 135.543 66.0577C136.076 66.0577 136.47 66.2077 136.726 66.5078C136.981 66.8051 137.109 67.2636 137.109 67.8834V70.7692H136.406C136.406 68.9183 136.405 67.9269 136.402 67.7951C136.39 67.4025 136.311 67.115 136.162 66.9327C136.016 66.7504 135.77 66.6593 135.425 66.6593C135.063 66.6593 134.762 66.7462 134.52 66.9201C134.279 67.094 134.122 67.3197 134.049 67.5974C134.021 67.7853 134.007 68.0012 134.007 68.2452V70.7692H133.295Z" fill="#FCFCFA"/>
</g>
</g>
</g>
<defs>
<clipPath id="clip0_367_224">
<rect width="141" height="80" fill="white"/>
</clipPath>
</defs>
</svg>
